<?xml version="1.0" encoding="UTF-8" standalone="no"?>
<svg
   xmlns:dc="http://purl.org/dc/elements/1.1/"
   xmlns:cc="http://creativecommons.org/ns#"
   xmlns:rdf="http://www.w3.org/1999/02/22-rdf-syntax-ns#"
   xmlns:svg="http://www.w3.org/2000/svg"
   xmlns="http://www.w3.org/2000/svg"
   version="1.0"
   width="1280.000000pt"
   height="1006.000000pt"
   viewBox="0 0 1280.000000 1006.000000"
   preserveAspectRatio="xMidYMid meet"
   id="svg88">
  <metadata
     id="metadata94">
    <rdf:RDF>
      <cc:Work
         rdf:about="">
        <dc:format>image/svg+xml</dc:format>
        <dc:type
           rdf:resource="http://purl.org/dc/dcmitype/StillImage" />
        <dc:title></dc:title>
      </cc:Work>
    </rdf:RDF>
  </metadata>
  <defs
     id="defs92" />
  <g
     transform="translate(0.000000,1006.000000) scale(0.100000,-0.100000)"
     fill="#000000"
     stroke="none"
     id="g86"
     style="fill:#ffffff">
    <path
       d="M12600 10040 c-277 -98 -787 -487 -1535 -1169 -755 -688 -1457 -1392 -2806 -2814 -610 -642 -1109 -1170 -1109 -1175 0 -4 24 -23 52 -42 105 -71 285 -209 352 -271 71 -65 208 -243 361 -467 50 -72 93 -131 97 -129 14 5 2079 2375 2302 2642 315 378 660 803 977 1200 1035 1300 1543 2038 1505 2188 -14 56 -98 72 -196 37z"
       id="path80"
       style="fill:#ffffff" />
    <path
       d="M6088 3723 c-1098 -1211 -1216 -1342 -1236 -1379 -7 -13 -21 -24 -31 -24 -27 0 -74 -58 -67 -83 3 -11 -7 -42 -21 -69 l-26 -49 30 -37 29 -36 -350 -315 c-193 -173 -389 -349 -435 -390 -116 -104 -161 -177 -255 -416 -118 -300 -279 -607 -332 -636 -36 -19 -65 -84 -53 -116 5 -14 6 -29 3 -35 -19 -30 84 -32 117 -2 11 10 29 35 41 56 15 25 55 61 127 111 170 118 195 131 418 226 193 81 226 92 357 116 80 15 158 30 173 34 20 5 63 50 148 154 66 81 130 153 141 161 12 9 24 29 27 45 5 22 11 28 24 25 23 -6 69 61 54 80 -6 7 -6 17 -1 26 7 12 12 12 28 -3 25 -23 27 -22 53 19 21 34 21 38 6 49 -23 17 -22 39 1 30 38 -16 48 -13 71 16 22 28 22 31 6 49 -13 15 -14 23 -5 39 11 21 11 21 34 -6 l24 -28 21 25 c31 38 35 59 15 81 -14 16 -15 22 -5 32 10 9 18 6 38 -17 28 -33 23 -35 68 28 13 18 16 17 59 -18 l45 -37 41 26 c22 14 54 28 71 32 24 4 40 19 65 59 20 31 93 107 172 179 147 133 2202 2200 2202 2214 0 11 -337 461 -414 553 -70 84 -152 152 -323 268 l-132 90 -1023 -1127z"
       id="path82"
       style="fill:#ffffff" />
    <path
       d="M787 1619 l-68 -40 34 -47 c66 -90 107 -189 153 -368 24 -95 44 -182 44 -193 0 -41 -29 -30 -87 32 -159 170 -215 224 -288 281 -104 81 -148 105 -202 113 -38 5 -54 1 -119 -32 -129 -66 -159 -122 -152 -280 4 -86 7 -95 61 -202 l57 -113 -38 0 c-29 0 -53 -11 -107 -50 l-69 -50 131 0 131 0 51 -113 c59 -132 71 -184 71 -319 0 -86 -3 -105 -26 -149 -14 -28 -24 -52 -22 -54 2 -1 37 14 78 34 69 33 77 40 102 91 50 102 33 294 -40 451 l-39 85 81 29 c45 15 123 46 175 68 l94 40 91 -99 c255 -280 366 -381 488 -448 84 -47 122 -47 204 -2 l63 35 16 -49 c9 -28 21 -52 26 -56 5 -3 52 16 104 43 90 46 95 47 127 34 18 -8 53 -16 78 -18 42 -4 51 -1 115 47 92 68 131 87 153 74 9 -6 40 -54 67 -107 28 -54 60 -107 72 -118 l20 -21 64 32 c35 18 77 41 92 52 15 11 34 17 42 15 7 -3 32 -37 54 -75 48 -82 101 -133 164 -157 71 -27 266 -18 334 16 26 13 54 36 62 50 14 24 12 32 -12 87 -15 33 -27 74 -27 91 0 27 8 36 65 73 74 49 97 89 69 120 -24 26 -65 22 -135 -12 -50 -24 -146 -80 -169 -98 -3 -2 2 -9 10 -15 12 -9 15 -36 15 -120 l0 -109 -37 5 c-85 11 -144 67 -220 206 -27 50 -57 50 -156 0 -47 -24 -89 -46 -94 -47 -5 -2 -27 36 -49 85 -23 48 -53 103 -67 122 -22 29 -29 33 -61 28 -20 -3 -84 -33 -144 -67 l-108 -62 -39 16 c-56 22 -66 21 -159 -24 -45 -22 -86 -40 -90 -40 -4 0 -15 24 -24 54 -21 64 -39 75 -77 43 -15 -13 -53 -34 -83 -46 l-55 -23 -47 21 c-81 36 -176 110 -297 234 -65 66 -118 124 -118 128 0 12 183 22 277 15 49 -4 157 -18 240 -32 l153 -24 66 47 c36 26 62 49 57 50 -4 1 -66 12 -138 23 -196 31 -349 40 -487 29 -66 -6 -122 -9 -124 -7 -2 3 -14 45 -27 95 l-22 90 63 39 c131 80 212 136 259 179 l48 45 -73 -30 c-39 -16 -93 -47 -120 -68 -51 -43 -181 -127 -187 -121 -2 2 -23 83 -48 181 -45 176 -81 264 -149 369 -18 27 -37 49 -43 49 -5 0 -41 -18 -78 -41z m-405 -391 c124 -83 387 -347 363 -364 -26 -19 -226 -81 -282 -88 l-51 -6 -76 153 -76 153 0 107 c0 86 3 107 14 107 8 0 56 -28 108 -62z m588 -307 c0 -5 3 -18 7 -28 6 -17 5 -17 -15 1 -12 10 -19 23 -16 27 7 12 24 11 24 0z"
       id="path84"
       style="fill:#ffffff" />
  </g>
</svg>
